<svg width="194" height="74" viewBox="0 0 194 74" fill="none" xmlns="http://www.w3.org/2000/svg">
<g clip-path="url(#clip0_2330_1591)">
<path fill-rule="evenodd" clip-rule="evenodd" d="M56.1033 51.2933C56.1033 50.0301 55.6015 48.8187 54.7083 47.9255C53.8151 47.0322 52.6036 46.5304 51.3404 46.5304C50.0772 46.5304 48.8657 47.0322 47.9725 47.9255C47.0793 48.8187 46.5775 50.0301 46.5775 51.2933C46.5775 52.5566 47.0793 53.768 47.9725 54.6612C48.8657 55.5545 50.0772 56.0563 51.3404 56.0563C52.6036 56.0563 53.8151 55.5545 54.7083 54.6612C55.6015 53.768 56.1033 52.5566 56.1033 51.2933ZM42.9788 51.3463C42.9248 50.2842 43.0881 49.2222 43.4588 48.2254C43.8295 47.2286 44.3998 46.3179 45.1346 45.5492C45.8695 44.7805 46.7536 44.1698 47.7327 43.7546C48.7118 43.3395 49.7653 43.1285 50.8288 43.1347C51.7786 43.1108 52.7224 43.2932 53.5949 43.6694C54.4674 44.0455 55.248 44.6063 55.8828 45.3133V39.2891H59.5608V59.1962H55.9093V57.1852C55.2871 57.9435 54.5011 58.5509 53.6105 58.9618C52.7199 59.3728 51.7478 59.5766 50.7671 59.5579C49.7117 59.5458 48.6695 59.322 47.7023 58.8997C46.735 58.4774 45.8624 57.8652 45.1361 57.0994C44.4098 56.3336 43.8446 55.4298 43.474 54.4416C43.1035 53.4534 42.9351 52.4008 42.9788 51.3463Z" fill="#414141"/>
<path fill-rule="evenodd" clip-rule="evenodd" d="M73.931 51.3503C73.8999 50.4471 73.6036 49.5731 73.0791 48.8371C72.5546 48.1011 71.8252 47.5358 70.9816 47.2115C70.138 46.8873 69.2177 46.8184 68.3353 47.0136C67.4529 47.2088 66.6474 47.6593 66.0193 48.3091C65.3912 48.9589 64.9682 49.7792 64.803 50.6677C64.6379 51.5562 64.7378 52.4737 65.0905 53.3058C65.4432 54.1378 66.0329 54.8477 66.7862 55.347C67.5396 55.8462 68.4232 56.1127 69.3269 56.1132C69.9434 56.1076 70.5525 55.9793 71.119 55.736C71.6854 55.4927 72.1978 55.1391 72.6262 54.6958C73.0547 54.2526 73.3907 53.7285 73.6147 53.1542C73.8388 52.5798 73.9463 51.9666 73.931 51.3503ZM61.1329 51.3503C61.1277 49.7265 61.6045 48.1376 62.5031 46.785C63.4016 45.4324 64.6814 44.3769 66.1803 43.7523C67.6792 43.1276 69.3298 42.9619 70.923 43.2761C72.5161 43.5904 73.9802 44.3704 75.1297 45.5174C76.2791 46.6644 77.0623 48.1268 77.38 49.7192C77.6976 51.3117 77.5355 52.9627 76.9141 54.4629C76.2927 55.9632 75.2399 57.2452 73.8893 58.1467C72.5386 59.0481 70.9508 59.5284 69.3269 59.5267C68.2501 59.5349 67.1823 59.3291 66.1856 58.9213C65.1889 58.5135 64.2832 57.9119 63.5209 57.1512C62.7586 56.3906 62.155 55.4861 61.7451 54.4903C61.3351 53.4945 61.1271 52.4272 61.1329 51.3503Z" fill="#414141"/>
<path fill-rule="evenodd" clip-rule="evenodd" d="M80.4453 43.4616V41.0713L84.1233 38.5664V43.4616H80.4453Z" fill="#666666"/>
<path fill-rule="evenodd" clip-rule="evenodd" d="M84.128 43.4648H87.3474V46.7195H84.128V52.6114C84.128 55.3545 84.5337 55.7867 87.3474 55.7867V59.2001H86.8358C81.9406 59.2001 80.45 57.6389 80.45 52.6378V46.7195H77.7422V43.4648H84.128Z" fill="#414141"/>
<path fill-rule="evenodd" clip-rule="evenodd" d="M96.4366 55.7807C95.2861 55.7296 94.1997 55.2365 93.4037 54.4043C92.6076 53.5721 92.1633 52.4649 92.1633 51.3133C92.1633 50.1616 92.6076 49.0544 93.4037 48.2222C94.1997 47.39 95.2861 46.897 96.4366 46.8458C97.0127 46.8421 97.5837 46.9542 98.1155 47.1757C98.6474 47.3971 99.1293 47.7232 99.5325 48.1347C99.9357 48.5461 100.252 49.0345 100.463 49.5707C100.673 50.1069 100.774 50.68 100.759 51.2559C100.782 51.8377 100.688 52.4184 100.481 52.9628C100.275 53.5072 99.9602 54.0041 99.5563 54.4236C99.1525 54.8431 98.6679 55.1765 98.1317 55.4037C97.5955 55.6308 97.0189 55.7471 96.4366 55.7454V55.7807ZM100.979 43.4324V45.4522C100.356 44.7154 99.5768 44.126 98.6983 43.7264C97.8198 43.3268 96.8636 43.127 95.8986 43.1413C94.8359 43.1339 93.7829 43.3438 92.8043 43.7581C91.8257 44.1723 90.9421 44.7823 90.2077 45.5505C89.4734 46.3187 88.9039 47.2289 88.5341 48.2252C88.1643 49.2215 88.0021 50.2829 88.0574 51.3441C88.0185 52.3958 88.1905 53.4445 88.5632 54.4286C88.936 55.4128 89.5019 56.3123 90.2277 57.0743C90.9536 57.8363 91.8245 58.4453 92.7894 58.8654C93.7542 59.2855 94.7934 59.5082 95.8457 59.5205C96.8357 59.5408 97.8171 59.3326 98.7136 58.9119C99.61 58.4912 100.397 57.8694 101.014 57.0949V58.9471C101.032 59.5441 100.929 60.1384 100.71 60.6942C100.492 61.25 100.163 61.7555 99.7429 62.1803C99.3231 62.605 98.8214 62.9401 98.2682 63.1651C97.715 63.3902 97.1219 63.5006 96.5248 63.4895C94.0111 63.4895 92.7586 62.4664 91.6032 60.3496L88.3573 62.3076C89.1229 63.7524 90.294 64.9419 91.7267 65.7299C93.1916 66.4878 94.8229 66.8668 96.4719 66.8324C98.0366 66.8669 99.5825 66.4865 100.953 65.7299C102.132 65.0149 103.096 63.9953 103.745 62.7785C104.394 61.5616 104.703 60.1924 104.639 58.8148V43.4589L100.979 43.4324Z" fill="#414141"/>
<path fill-rule="evenodd" clip-rule="evenodd" d="M119.051 51.3503C119.02 50.4483 118.725 49.5753 118.201 48.8398C117.678 48.1044 116.95 47.539 116.108 47.214C115.266 46.8889 114.347 46.8185 113.465 47.0116C112.583 47.2046 111.778 47.6526 111.149 48.2997C110.52 48.9469 110.094 49.7647 109.926 50.6515C109.758 51.5384 109.854 52.455 110.203 53.2876C110.552 54.1201 111.137 54.8318 111.887 55.3342C112.637 55.8366 113.518 56.1075 114.421 56.1132C115.037 56.1076 115.646 55.9793 116.213 55.736C116.779 55.4927 117.292 55.1391 117.72 54.6958C118.148 54.2526 118.484 53.7285 118.708 53.1542C118.933 52.5798 119.04 51.9666 119.025 51.3503M106.227 51.3503C106.221 49.7265 106.698 48.1376 107.597 46.785C108.495 45.4324 109.775 44.3769 111.274 43.7523C112.773 43.1276 114.424 42.9619 116.017 43.2761C117.61 43.5904 119.074 44.3704 120.223 45.5174C121.373 46.6644 122.156 48.1268 122.474 49.7192C122.791 51.3117 122.629 52.9627 122.008 54.4629C121.386 55.9632 120.334 57.2452 118.983 58.1467C117.632 59.0481 116.045 59.5284 114.421 59.5267C113.344 59.5349 112.276 59.3291 111.279 58.9213C110.283 58.5135 109.377 57.9119 108.615 57.1512C107.852 56.3906 107.249 55.4861 106.839 54.4903C106.429 53.4945 106.221 52.4272 106.227 51.3503Z" fill="#414141"/>
<path fill-rule="evenodd" clip-rule="evenodd" d="M124.343 40.7023L126.107 40.6318C126.106 39.308 125.723 38.0127 125.005 36.9008C124.411 35.9098 123.668 35.0172 122.8 34.2548C121.908 33.4585 120.966 32.7219 119.977 32.0497C119.977 32.0497 119.034 31.4676 118.055 30.8414C116.674 30.0314 115.337 29.1481 114.05 28.1953C113.831 29.4133 113.849 30.6621 114.103 31.8733C114.103 31.8733 115.038 36.4775 118.381 38.0475L119.016 36.4069C119.016 36.4069 116.97 35.6484 115.858 31.6352C117.228 32.4317 118.55 33.3064 119.819 34.2548C121.051 35.1287 122.16 36.164 123.117 37.333C123.859 38.3224 124.286 39.5116 124.343 40.7465" fill="#666666"/>
<path fill-rule="evenodd" clip-rule="evenodd" d="M130.988 25.2562L133.149 28.5726C133.766 29.5505 134.118 30.672 134.172 31.8272C134.216 32.949 133.908 34.0565 133.29 34.9937C132.906 35.5913 132.45 36.1394 131.931 36.6254C131.449 37.0741 130.825 37.3421 130.167 37.3839C129.838 37.3732 129.516 37.2883 129.224 37.1356C128.933 36.9829 128.679 36.7663 128.483 36.5019C127.912 35.7966 127.519 34.9648 127.336 34.0764C127.164 33.2038 127.061 32.3191 127.027 31.4303C127.027 31.4303 126.983 30.2308 127.027 28.8901C127.069 28.2071 127.206 27.5332 127.433 26.8879C127.601 26.4367 127.842 26.0165 128.148 25.6443C128.426 25.3714 128.791 25.2031 129.18 25.168C129.61 25.1694 130.028 25.3189 130.361 25.5913L130.132 28.0875C130.132 28.0875 129.762 27.47 129.541 27.1437C129.528 27.1215 129.511 27.1027 129.489 27.0889C129.468 27.0751 129.443 27.0666 129.418 27.0643C129.294 27.0643 129.215 27.5141 129.171 27.6817C129.115 27.882 129.071 28.0852 129.038 28.2903C128.949 28.7349 128.899 29.1865 128.888 29.6398C128.888 29.6398 128.888 31.3245 128.994 32.1888C128.994 32.1888 129.171 34.5615 130.273 35.5493C130.273 35.5493 130.52 35.6905 130.847 35.2495C131.589 34.6107 132.121 33.762 132.372 32.8151C132.459 32.3902 132.459 31.9522 132.372 31.5273C132.18 30.5852 131.812 29.6876 131.288 28.8813L130.714 29.1635L130.114 27.9816L130.3 25.6443L130.988 25.2562Z" fill="#666666"/>
<path fill-rule="evenodd" clip-rule="evenodd" d="M131.27 54.2184L132.479 53.0453C132.297 52.8438 132.078 52.6806 131.832 52.5655C131.587 52.4504 131.321 52.3856 131.05 52.375C130.677 52.4061 130.319 52.5328 130.01 52.743C129.701 52.9532 129.452 53.2396 129.286 53.5745C128.727 54.5002 128.28 55.4891 127.954 56.5205C127.954 56.5205 127.407 58.3816 127.01 60.0486C127.01 60.0486 126.463 62.3154 126.128 64.5469C126.128 64.5469 125.881 65.9757 125.696 67.5369C125.696 67.5369 125.484 69.1422 125.484 69.9095L127.248 70.2183C127.248 70.2183 127.936 67.6604 128.351 66.4256C128.351 66.4256 128.651 65.5436 129.012 64.5292C129.012 64.5292 129.498 63.0033 129.894 61.5304C130.298 60.1593 130.593 58.7584 130.776 57.3408C130.874 56.4614 130.874 55.574 130.776 54.6947L131.226 54.1831L131.27 54.2184Z" fill="#666666"/>
<path fill-rule="evenodd" clip-rule="evenodd" d="M140.982 32.9331L141.538 34.4942C141.844 34.4387 142.135 34.3178 142.391 34.1397C142.647 33.9616 142.861 33.7306 143.02 33.4623C143.74 32.4791 144.316 31.398 144.731 30.2517C145.102 29.2537 145.414 28.2347 145.666 27.1999C145.666 27.1999 146.116 25.4359 146.424 23.7689L144.775 23.125C144.775 23.125 144.043 24.2275 143.514 25.0478C143.514 25.0478 142.288 26.8118 141.476 28.1525C141.476 28.1525 140.462 29.7049 139.536 31.2837C139.536 31.2837 138.539 32.9595 137.772 34.6177C137.261 35.6289 136.856 36.69 136.563 37.7842C136.427 38.3176 136.356 38.8655 136.352 39.4159C136.375 39.907 136.502 40.3877 136.722 40.8271C137.109 41.4 137.687 41.816 138.354 42.0002L138.751 40.2362C138.649 40.2247 138.55 40.1922 138.461 40.1407C138.372 40.0891 138.295 40.0197 138.235 39.9367C138.174 39.8538 138.132 39.7592 138.11 39.6589C138.088 39.5586 138.087 39.4548 138.107 39.3542C138.233 38.3114 138.509 37.2925 138.927 36.3288C138.927 36.3288 139.809 34.3002 140.524 33.0654L142.367 29.9783L143.505 28.2143C143.505 28.2143 143.011 29.6784 142.623 30.5163C142.623 30.5163 142.376 31.0279 141.873 31.9099C141.663 32.3009 141.36 32.6341 140.991 32.8801" fill="#666666"/>
<path fill-rule="evenodd" clip-rule="evenodd" d="M136.203 48.0621L136.485 49.0235L136.212 49.3234L136.415 49.4822L136.485 50.4436L137.147 50.1349C137.147 50.1349 138.752 51.5461 140.128 52.5251C141.254 53.3607 142.433 54.1237 143.656 54.8096C144.513 55.2453 145.432 55.543 146.382 55.6916C146.771 55.7299 147.162 55.6576 147.512 55.4828C147.862 55.308 148.155 55.0379 148.357 54.7037C148.593 54.2319 148.682 53.7006 148.613 53.1778C148.492 52.3448 148.083 51.5803 147.458 51.0169C146.591 50.2238 145.579 49.6067 144.476 49.1999C143.083 48.6288 141.621 48.2404 140.128 48.0445C139.304 47.9275 138.472 47.8803 137.641 47.9034L138.981 49.6674C140.447 49.8578 141.891 50.1856 143.295 50.6464C144.19 50.9379 145.037 51.36 145.808 51.8989C145.808 51.8989 146.849 52.6398 146.849 53.3719C146.848 53.5302 146.824 53.6876 146.779 53.8393C146.779 53.8393 146.576 54.0599 145.817 53.7335C145.103 53.4822 144.415 53.1632 143.762 52.7809C142.508 52.0261 141.295 51.2047 140.128 50.3201C139.882 50.102 139.622 49.8988 139.352 49.7115L139.634 49.05L137.729 47.8945C137.217 47.9159 136.707 47.9749 136.203 48.0709" fill="#666666"/>
</g>
<defs>
<clipPath id="clip0_2330_1591">
<rect width="105.842" height="48.5111" fill="white" transform="translate(42.9688 18.5)"/>
</clipPath>
</defs>
</svg>
