<svg width="194" height="74" viewBox="0 0 194 74" fill="none" xmlns="http://www.w3.org/2000/svg">
<path d="M95.8327 13.875C65.2562 13.875 40.4688 26.2689 40.4688 41.5568C40.4688 56.8451 65.2562 69.2387 95.8327 69.2387C126.409 69.2387 151.197 56.8448 151.197 41.5568C151.197 26.2686 126.409 13.875 95.8327 13.875ZM95.8327 64.8685C67.6697 64.8685 44.8391 54.4316 44.8391 41.5568C44.8391 28.6821 67.6699 18.2452 95.8327 18.2452C123.996 18.2452 146.826 28.6821 146.826 41.5568C146.826 54.4316 123.995 64.8685 95.8327 64.8685ZM88.8506 36.7004V32.3293H104.469V36.7004H98.8465V50.7844H94.4745V36.7004H88.8506ZM123.322 32.3293V50.7846H118.952L111.026 39.7983V50.7846H106.655V32.3293H111.025L118.952 43.3156V32.3293H123.322ZM68.2128 50.7846V32.3293H72.5832L77.4387 39.7983L82.2943 32.3293H86.6629V50.7846H82.2943V40.3459L78.9794 45.4412H75.898L72.5832 40.3459V50.7846H68.2128Z" fill="#666666"/>
</svg>
