<svg xmlns="http://www.w3.org/2000/svg" xmlns:xlink="http://www.w3.org/1999/xlink" preserveAspectRatio="xMidYMid meet" width="376" height="376" viewBox="0 0 376 376" style="width:100%;height:100%"><defs><animate repeatCount="indefinite" dur="3.0333333s" begin="0s" xlink:href="#_R_G_L_9_G_D_0_P_0" fill="freeze" attributeName="rx" from="0" to="0" keyTimes="0;0.6943077;0.741989;0.796022;0.8691319;0.904093;1" values="0;0;3.5;2.5;3.5;0;0" keySplines="0.167 0 0.833 1;0.167 0 0.833 1;0.167 0 0.667 1;0.333 0 0.667 1;0.167 0 0.833 1;0 0 0 0" calcMode="spline"/><animate repeatCount="indefinite" dur="3.0333333s" begin="0s" xlink:href="#_R_G_L_9_G_D_0_P_0" fill="freeze" attributeName="ry" from="0" to="0" keyTimes="0;0.6943077;0.741989;0.796022;0.8691319;0.904093;1" values="0;0;3.5;2.5;3.5;0;0" keySplines="0.167 0 0.833 1;0.167 0 0.833 1;0.167 0 0.667 1;0.333 0 0.667 1;0.167 0 0.833 1;0 0 0 0" calcMode="spline"/><animate repeatCount="indefinite" dur="3.0333333s" begin="0s" xlink:href="#_R_G_L_9_G_D_0_P_1" fill="freeze" attributeName="rx" from="0" to="0" keyTimes="0;0.5054945;0.5579341;0.6173846;0.6978132;0.7362637;1" values="0;0;3.5;2.5;3.5;0;0" keySplines="0.167 0 0.833 1;0.167 0 0.833 1;0.167 0 0.667 1;0.333 0 0.667 1;0.167 0 0.833 1;0 0 0 0" calcMode="spline"/><animate repeatCount="indefinite" dur="3.0333333s" begin="0s" xlink:href="#_R_G_L_9_G_D_0_P_1" fill="freeze" attributeName="ry" from="0" to="0" keyTimes="0;0.5054945;0.5579341;0.6173846;0.6978132;0.7362637;1" values="0;0;3.5;2.5;3.5;0;0" keySplines="0.167 0 0.833 1;0.167 0 0.833 1;0.167 0 0.667 1;0.333 0 0.667 1;0.167 0 0.833 1;0 0 0 0" calcMode="spline"/><animate repeatCount="indefinite" dur="3.0333333s" begin="0s" xlink:href="#_R_G_L_9_G_D_0_P_2" fill="freeze" attributeName="rx" from="0" to="0" keyTimes="0;0.5789231;0.6421099;0.7136923;0.8105714;0.856896;1" values="0;0;3.5;2.5;3.5;0;0" keySplines="0.167 0 0.833 1;0.167 0 0.833 1;0.167 0 0.667 1;0.167 0 0.667 1;0.167 0 0.833 1;0 0 0 0" calcMode="spline"/><animate repeatCount="indefinite" dur="3.0333333s" begin="0s" xlink:href="#_R_G_L_9_G_D_0_P_2" fill="freeze" attributeName="ry" from="0" to="0" keyTimes="0;0.5789231;0.6421099;0.7136923;0.8105714;0.856896;1" values="0;0;3.5;2.5;3.5;0;0" keySplines="0.167 0 0.833 1;0.167 0 0.833 1;0.167 0 0.667 1;0.167 0 0.667 1;0.167 0 0.833 1;0 0 0 0" calcMode="spline"/><animate repeatCount="indefinite" dur="3.0333333s" begin="0s" xlink:href="#_R_G_L_9_G_D_0_P_3" fill="freeze" attributeName="rx" from="0" to="0" keyTimes="0;0.6785714;0.7441319;0.8184396;0.9189451;0.967033;1" values="0;0;3.5;2.5;3.5;0;0" keySplines="0.167 0 0.833 1;0.167 0 0.833 1;0.167 0 0.667 1;0.167 0 0.667 1;0.167 0 0.833 1;0 0 0 0" calcMode="spline"/><animate repeatCount="indefinite" dur="3.0333333s" begin="0s" xlink:href="#_R_G_L_9_G_D_0_P_3" fill="freeze" attributeName="ry" from="0" to="0" keyTimes="0;0.6785714;0.7441319;0.8184396;0.9189451;0.967033;1" values="0;0;3.5;2.5;3.5;0;0" keySplines="0.167 0 0.833 1;0.167 0 0.833 1;0.167 0 0.667 1;0.167 0 0.667 1;0.167 0 0.833 1;0 0 0 0" calcMode="spline"/><animate repeatCount="indefinite" dur="3.0333333s" begin="0s" xlink:href="#_R_G_L_9_G_D_0_P_4" fill="freeze" attributeName="rx" from="0" to="0" keyTimes="0;0.5054945;0.5841648;0.6733187;0.7939561;0.8516484;1" values="0;0;6;5;6;0;0" keySplines="0.167 0 0.833 1;0.167 0 0.833 1;0.167 0 0.667 1;0.167 0 0.833 1;0.167 0 0.833 1;0 0 0 0" calcMode="spline"/><animate repeatCount="indefinite" dur="3.0333333s" begin="0s" xlink:href="#_R_G_L_9_G_D_0_P_4" fill="freeze" attributeName="ry" from="0" to="0" keyTimes="0;0.5054945;0.5841648;0.6733187;0.7939561;0.8516484;1" values="0;0;6;5;6;0;0" keySplines="0.167 0 0.833 1;0.167 0 0.833 1;0.167 0 0.667 1;0.167 0 0.833 1;0.167 0 0.833 1;0 0 0 0" calcMode="spline"/><animateTransform repeatCount="indefinite" dur="3.0333333s" begin="0s" xlink:href="#_R_G_L_8_G" fill="freeze" attributeName="transform" from="13" to="13" type="rotate" additive="sum" keyTimes="0;0.2747253;0.5274725;0.8021978;1" values="13;13;-20;13;13" keySplines="0.333 0 0.667 1;0.333 0 0.667 1;0.333 0 0.667 1;0 0 0 0" calcMode="spline"/><animateTransform repeatCount="indefinite" dur="3.0333333s" begin="0s" xlink:href="#_R_G_L_8_G" fill="freeze" attributeName="transform" from="-7.77 -11.035" to="-7.77 -11.035" type="translate" additive="sum" keyTimes="0;1" values="-7.77 -11.035;-7.77 -11.035" keySplines="0 0 1 1" calcMode="spline"/><animateTransform repeatCount="indefinite" dur="3.0333333s" begin="0s" xlink:href="#_R_G_L_7_G" fill="freeze" attributeName="transform" from="0" to="0" type="rotate" additive="sum" keyTimes="0;0.2857143;0.5054945;0.6593407;0.7582418;1" values="0;0;44;8.939;0;0" keySplines="0.333 0 0.667 1;0.333 0 0.667 1;0.333 0 0.667 0.636;0.333 0.918 0.667 1;0 0 0 0" calcMode="spline"/><animateTransform repeatCount="indefinite" dur="3.0333333s" begin="0s" xlink:href="#_R_G_L_7_G" fill="freeze" attributeName="transform" from="-7.651 -57.368" to="-7.651 -57.368" type="translate" additive="sum" keyTimes="0;1" values="-7.651 -57.368;-7.651 -57.368" keySplines="0 0 1 1" calcMode="spline"/><animateTransform repeatCount="indefinite" dur="3.0333333s" begin="0s" xlink:href="#_R_G_L_7_G_N_9_T_0" fill="freeze" attributeName="transform" from="13" to="13" type="rotate" additive="sum" keyTimes="0;0.2747253;0.5274725;0.8021978;1" values="13;13;-20;13;13" keySplines="0.333 0 0.667 1;0.333 0 0.667 1;0.333 0 0.667 1;0 0 0 0" calcMode="spline"/><animateTransform repeatCount="indefinite" dur="3.0333333s" begin="0s" xlink:href="#_R_G_L_7_G_N_9_T_0" fill="freeze" attributeName="transform" from="-7.77 -11.035" to="-7.77 -11.035" type="translate" additive="sum" keyTimes="0;1" values="-7.77 -11.035;-7.77 -11.035" keySplines="0 0 1 1" calcMode="spline"/><animateTransform repeatCount="indefinite" dur="3.0333333s" begin="0s" xlink:href="#_R_G_L_6_G" fill="freeze" attributeName="transform" from="23" to="23" type="rotate" additive="sum" keyTimes="0;0.3956044;0.5054945;0.6483517;0.8241758;1" values="23;23;0;-14.278;23;23" keySplines="0.333 0 0.667 1;0.333 0 0.667 1;0.333 0 0.667 1;0.333 0.168 0.667 1;0 0 0 0" calcMode="spline"/><animateTransform repeatCount="indefinite" dur="3.0333333s" begin="0s" xlink:href="#_R_G_L_6_G" fill="freeze" attributeName="transform" from="-2.521 -15.144" to="-2.521 -15.144" type="translate" additive="sum" keyTimes="0;1" values="-2.521 -15.144;-2.521 -15.144" keySplines="0 0 1 1" calcMode="spline"/><animateTransform repeatCount="indefinite" dur="3.0333333s" begin="0s" xlink:href="#_R_G_L_6_G_N_8_T_0" fill="freeze" attributeName="transform" from="0" to="0" type="rotate" additive="sum" keyTimes="0;0.2857143;0.5054945;0.6593407;0.7582418;1" values="0;0;44;8.939;0;0" keySplines="0.333 0 0.667 1;0.333 0 0.667 1;0.333 0 0.667 0.636;0.333 0.918 0.667 1;0 0 0 0" calcMode="spline"/><animateTransform repeatCount="indefinite" dur="3.0333333s" begin="0s" xlink:href="#_R_G_L_6_G_N_8_T_0" fill="freeze" attributeName="transform" from="-7.651 -57.368" to="-7.651 -57.368" type="translate" additive="sum" keyTimes="0;1" values="-7.651 -57.368;-7.651 -57.368" keySplines="0 0 1 1" calcMode="spline"/><animateTransform repeatCount="indefinite" dur="3.0333333s" begin="0s" xlink:href="#_R_G_L_6_G_N_8_N_9_T_0" fill="freeze" attributeName="transform" from="13" to="13" type="rotate" additive="sum" keyTimes="0;0.2747253;0.5274725;0.8021978;1" values="13;13;-20;13;13" keySplines="0.333 0 0.667 1;0.333 0 0.667 1;0.333 0 0.667 1;0 0 0 0" calcMode="spline"/><animateTransform repeatCount="indefinite" dur="3.0333333s" begin="0s" xlink:href="#_R_G_L_6_G_N_8_N_9_T_0" fill="freeze" attributeName="transform" from="-7.77 -11.035" to="-7.77 -11.035" type="translate" additive="sum" keyTimes="0;1" values="-7.77 -11.035;-7.77 -11.035" keySplines="0 0 1 1" calcMode="spline"/><animate repeatCount="indefinite" dur="3.0333333s" begin="0s" xlink:href="#_R_G_L_4_G_D_4_P_0" fill="freeze" attributeName="d" attributeType="XML" from=" M36.93 29.35 C36.93,29.35 34.2,29.74 34.2,29.74 M37.61 29.25 C37.61,29.25 37.43,29.27 37.43,29.27 C36.3,29.44 35.14,29.31 34.08,28.89 " to=" M36.93 29.35 C36.93,29.35 34.2,29.74 34.2,29.74 M37.61 29.25 C37.61,29.25 37.43,29.27 37.43,29.27 C36.3,29.44 35.14,29.31 34.08,28.89 " keyTimes="0;0.021978;0.3516484;0.5274725;1" values=" M36.93 29.35 C36.93,29.35 34.2,29.74 34.2,29.74 M37.61 29.25 C37.61,29.25 37.43,29.27 37.43,29.27 C36.3,29.44 35.14,29.31 34.08,28.89 ; M36.93 29.35 C36.93,29.35 34.2,29.74 34.2,29.74 M37.61 29.25 C37.61,29.25 37.43,29.27 37.43,29.27 C36.3,29.44 35.14,29.31 34.08,28.89 ; M36.93 29.35 C36.93,29.35 34.2,29.74 34.2,29.74 M37.61 29.25 C37.61,29.25 37.43,29.27 37.43,29.27 C36.3,29.44 35.28,30.27 34.21,29.85 ; M36.93 29.35 C36.93,29.35 34.2,29.74 34.2,29.74 M37.61 29.25 C37.61,29.25 37.43,29.27 37.43,29.27 C36.3,29.44 35.14,29.31 34.08,28.89 ; M36.93 29.35 C36.93,29.35 34.2,29.74 34.2,29.74 M37.61 29.25 C37.61,29.25 37.43,29.27 37.43,29.27 C36.3,29.44 35.14,29.31 34.08,28.89 " keySplines="0.333 0 0.667 1;0.333 0 0.667 1;0.333 0 0.667 1;0 0 0 0" calcMode="spline"/><animateTransform repeatCount="indefinite" dur="3.0333333s" begin="0s" xlink:href="#_R_G_L_4_G" fill="freeze" attributeName="transform" from="0" to="0" type="rotate" additive="sum" keyTimes="0;0.2417582;0.7252747;1" values="0;11;0;0" keySplines="0.333 0 0.667 1;0.333 0 0.667 1;0 0 0 0" calcMode="spline"/><animateTransform repeatCount="indefinite" dur="3.0333333s" begin="0s" xlink:href="#_R_G_L_4_G" fill="freeze" attributeName="transform" from="-41.429 -46.887" to="-41.429 -46.887" type="translate" additive="sum" keyTimes="0;1" values="-41.429 -46.887;-41.429 -46.887" keySplines="0 0 1 1" calcMode="spline"/><animateTransform repeatCount="indefinite" dur="3.0333333s" begin="0s" xlink:href="#_R_G_L_3_G" fill="freeze" attributeName="transform" from="0" to="0" type="rotate" additive="sum" keyTimes="0;0.1868132;0.4725275;1" values="0;-5;0;0" keySplines="0.333 0 0.667 1;0.333 0 0.667 1;0 0 0 0" calcMode="spline"/><animateTransform repeatCount="indefinite" dur="3.0333333s" begin="0s" xlink:href="#_R_G_L_3_G" fill="freeze" attributeName="transform" from="-24.821 -19.007" to="-24.821 -19.007" type="translate" additive="sum" keyTimes="0;1" values="-24.821 -19.007;-24.821 -19.007" keySplines="0 0 1 1" calcMode="spline"/><animateTransform repeatCount="indefinite" dur="3.0333333s" begin="0s" xlink:href="#_R_G_L_3_G_N_5_T_0" fill="freeze" attributeName="transform" from="0" to="0" type="rotate" additive="sum" keyTimes="0;0.2417582;0.7252747;1" values="0;11;0;0" keySplines="0.333 0 0.667 1;0.333 0 0.667 1;0 0 0 0" calcMode="spline"/><animateTransform repeatCount="indefinite" dur="3.0333333s" begin="0s" xlink:href="#_R_G_L_3_G_N_5_T_0" fill="freeze" attributeName="transform" from="-41.429 -46.887" to="-41.429 -46.887" type="translate" additive="sum" keyTimes="0;1" values="-41.429 -46.887;-41.429 -46.887" keySplines="0 0 1 1" calcMode="spline"/><animateTransform repeatCount="indefinite" dur="3.0333333s" begin="0s" xlink:href="#_R_G_L_2_G" fill="freeze" attributeName="transform" from="0" to="0" type="rotate" additive="sum" keyTimes="0;0.0879121;0.6703297;0.989011;1" values="0;-3;-3;0;0" keySplines="0.333 0 0.667 1;0.333 0 0.667 1;0.333 0 0.667 1;0 0 0 0" calcMode="spline"/><animateTransform repeatCount="indefinite" dur="3.0333333s" begin="0s" xlink:href="#_R_G_L_2_G" fill="freeze" attributeName="transform" from="-6.31 -25.616" to="-6.31 -25.616" type="translate" additive="sum" keyTimes="0;1" values="-6.31 -25.616;-6.31 -25.616" keySplines="0 0 1 1" calcMode="spline"/><animateTransform repeatCount="indefinite" dur="3.0333333s" begin="0s" xlink:href="#_R_G_L_1_G" fill="freeze" attributeName="transform" from="0" to="0" type="rotate" additive="sum" keyTimes="0;0.0659341;0.1208791;0.3406593;0.6483517;0.7692308;1" values="0;0;6;14;6;0;0" keySplines="0.333 0 0.667 1;0.333 0 0.667 1;0.333 0 0.667 1;0.333 0 0.667 1;0.333 0 0.667 1;0 0 0 0" calcMode="spline"/><animateTransform repeatCount="indefinite" dur="3.0333333s" begin="0s" xlink:href="#_R_G_L_1_G" fill="freeze" attributeName="transform" from="-7.304 -17.471" to="-7.304 -17.471" type="translate" additive="sum" keyTimes="0;1" values="-7.304 -17.471;-7.304 -17.471" keySplines="0 0 1 1" calcMode="spline"/><animateTransform repeatCount="indefinite" dur="3.0333333s" begin="0s" xlink:href="#_R_G_L_1_G_N_3_T_0" fill="freeze" attributeName="transform" from="0" to="0" type="rotate" additive="sum" keyTimes="0;0.0879121;0.6703297;0.989011;1" values="0;-3;-3;0;0" keySplines="0.333 0 0.667 1;0.333 0 0.667 1;0.333 0 0.667 1;0 0 0 0" calcMode="spline"/><animateTransform repeatCount="indefinite" dur="3.0333333s" begin="0s" xlink:href="#_R_G_L_1_G_N_3_T_0" fill="freeze" attributeName="transform" from="-6.31 -25.616" to="-6.31 -25.616" type="translate" additive="sum" keyTimes="0;1" values="-6.31 -25.616;-6.31 -25.616" keySplines="0 0 1 1" calcMode="spline"/><animateTransform repeatCount="indefinite" dur="3.0333333s" begin="0s" xlink:href="#_R_G_L_0_G_D_3_P_0_G_0_T_0" fill="freeze" attributeName="transform" from="-2" to="-2" type="rotate" additive="sum" keyTimes="0;0.3186813;0.5284725;0.6593407;1" values="-2;-2;8;-2;-2" keySplines="0.333 0 0.667 1;0.333 0 0.667 1;0.333 0 0.667 1;0 0 0 0" calcMode="spline"/><animateTransform repeatCount="indefinite" dur="3.0333333s" begin="0s" xlink:href="#_R_G_L_0_G_D_3_P_0_G_0_T_0" fill="freeze" attributeName="transform" from="-44.907 -60.953" to="-44.907 -60.953" type="translate" additive="sum" keyTimes="0;1" values="-44.907 -60.953;-44.907 -60.953" keySplines="0 0 1 1" calcMode="spline"/><animateTransform repeatCount="indefinite" dur="3.0333333s" begin="0s" xlink:href="#_R_G_L_0_G_D_4_P_0_G_0_T_0" fill="freeze" attributeName="transform" from="-2" to="-2" type="rotate" additive="sum" keyTimes="0;0.3186813;0.5284725;0.6593407;1" values="-2;-2;8;-2;-2" keySplines="0.333 0 0.667 1;0.333 0 0.667 1;0.333 0 0.667 1;0 0 0 0" calcMode="spline"/><animateTransform repeatCount="indefinite" dur="3.0333333s" begin="0s" xlink:href="#_R_G_L_0_G_D_4_P_0_G_0_T_0" fill="freeze" attributeName="transform" from="-44.907 -60.953" to="-44.907 -60.953" type="translate" additive="sum" keyTimes="0;1" values="-44.907 -60.953;-44.907 -60.953" keySplines="0 0 1 1" calcMode="spline"/><animateTransform repeatCount="indefinite" dur="3.0333333s" begin="0s" xlink:href="#_R_G_L_0_G_D_5_P_0_G_0_T_0" fill="freeze" attributeName="transform" from="-2" to="-2" type="rotate" additive="sum" keyTimes="0;0.3186813;0.5284725;0.6593407;1" values="-2;-2;8;-2;-2" keySplines="0.333 0 0.667 1;0.333 0 0.667 1;0.333 0 0.667 1;0 0 0 0" calcMode="spline"/><animateTransform repeatCount="indefinite" dur="3.0333333s" begin="0s" xlink:href="#_R_G_L_0_G_D_5_P_0_G_0_T_0" fill="freeze" attributeName="transform" from="-44.907 -60.953" to="-44.907 -60.953" type="translate" additive="sum" keyTimes="0;1" values="-44.907 -60.953;-44.907 -60.953" keySplines="0 0 1 1" calcMode="spline"/><animateTransform repeatCount="indefinite" dur="3.0333333s" begin="0s" xlink:href="#_R_G_L_0_G_D_6_P_0_G_0_T_0" fill="freeze" attributeName="transform" from="-2" to="-2" type="rotate" additive="sum" keyTimes="0;0.3186813;0.5284725;0.6593407;1" values="-2;-2;8;-2;-2" keySplines="0.333 0 0.667 1;0.333 0 0.667 1;0.333 0 0.667 1;0 0 0 0" calcMode="spline"/><animateTransform repeatCount="indefinite" dur="3.0333333s" begin="0s" xlink:href="#_R_G_L_0_G_D_6_P_0_G_0_T_0" fill="freeze" attributeName="transform" from="-44.907 -60.953" to="-44.907 -60.953" type="translate" additive="sum" keyTimes="0;1" values="-44.907 -60.953;-44.907 -60.953" keySplines="0 0 1 1" calcMode="spline"/><animateTransform repeatCount="indefinite" dur="3.0333333s" begin="0s" xlink:href="#_R_G_L_0_G_D_7_P_0_G_0_T_0" fill="freeze" attributeName="transform" from="-2" to="-2" type="rotate" additive="sum" keyTimes="0;0.3186813;0.5284725;0.6593407;1" values="-2;-2;8;-2;-2" keySplines="0.333 0 0.667 1;0.333 0 0.667 1;0.333 0 0.667 1;0 0 0 0" calcMode="spline"/><animateTransform repeatCount="indefinite" dur="3.0333333s" begin="0s" xlink:href="#_R_G_L_0_G_D_7_P_0_G_0_T_0" fill="freeze" attributeName="transform" from="-44.907 -60.953" to="-44.907 -60.953" type="translate" additive="sum" keyTimes="0;1" values="-44.907 -60.953;-44.907 -60.953" keySplines="0 0 1 1" calcMode="spline"/><animateTransform repeatCount="indefinite" dur="3.0333333s" begin="0s" xlink:href="#_R_G_L_0_G_D_8_P_0_G_0_T_0" fill="freeze" attributeName="transform" from="-2" to="-2" type="rotate" additive="sum" keyTimes="0;0.3186813;0.5284725;0.6593407;1" values="-2;-2;8;-2;-2" keySplines="0.333 0 0.667 1;0.333 0 0.667 1;0.333 0 0.667 1;0 0 0 0" calcMode="spline"/><animateTransform repeatCount="indefinite" dur="3.0333333s" begin="0s" xlink:href="#_R_G_L_0_G_D_8_P_0_G_0_T_0" fill="freeze" attributeName="transform" from="-44.907 -60.953" to="-44.907 -60.953" type="translate" additive="sum" keyTimes="0;1" values="-44.907 -60.953;-44.907 -60.953" keySplines="0 0 1 1" calcMode="spline"/><animate attributeType="XML" attributeName="opacity" dur="3s" from="0" to="1" xlink:href="#time_group"/></defs><g id="_R_G"><g id="_R_G_L_10_G" transform=" translate(188, 188) translate(0, 0)"><path id="_R_G_L_10_G_D_0_P_0" fill="#edf0f0" fill-opacity="1" fill-rule="nonzero" d=" M0 -156 C86.1,-156 156,-86.1 156,0 C156,86.1 86.1,156 0,156 C-86.1,156 -156,86.1 -156,0 C-156,-86.1 -86.1,-156 0,-156z "/></g><g id="_R_G_L_9_G" transform=" translate(235.121, 124.971) scale(2, 2) translate(-36.386, -36.126)"><ellipse id="_R_G_L_9_G_D_0_P_0" fill="#ffe42c" fill-opacity="1" fill-rule="nonzero" cx="22" cy="20"/><ellipse id="_R_G_L_9_G_D_0_P_1" fill="#ffe42c" fill-opacity="1" fill-rule="nonzero" cx="70" cy="59"/><ellipse id="_R_G_L_9_G_D_0_P_2" fill="#ffe42c" fill-opacity="1" fill-rule="nonzero" cx="11" cy="70"/><ellipse id="_R_G_L_9_G_D_0_P_3" fill="#ffe42c" fill-opacity="1" fill-rule="nonzero" cx="28" cy="3"/><ellipse id="_R_G_L_9_G_D_0_P_4" fill="#ffe42c" fill-opacity="1" fill-rule="nonzero" cx="5" cy="5"/></g><g id="_R_G_L_8_G_N_6_T_0" transform=" translate(123.982, 329.464) scale(2, 2) translate(-41.748, -70.364)"><g id="_R_G_L_8_G" transform=" translate(59.895, 32.097)"><path id="_R_G_L_8_G_D_0_P_0" fill="#3ec5f0" fill-opacity="1" fill-rule="nonzero" d=" M60.8 32.05 C60.34,32.98 59.67,33.75 58.88,34.31 C58.87,34.32 58.87,34.33 58.86,34.33 C57.24,35.48 55.09,35.82 53.12,35.06 C53.12,35.06 19.28,23.51 19.28,23.51 C19.28,23.51 0.96,17.26 0.96,17.26 C0.96,17.26 0.25,17.02 0.25,17.02 C0.25,17.02 0.96,15.23 0.96,15.23 C0.96,15.23 6.89,0.25 6.89,0.25 C12.79,1.82 18.7,3.38 24.6,4.95 C24.6,4.95 25.07,5.22 25.07,5.22 C25.07,5.22 49.05,18.79 49.05,18.79 C49.05,18.79 49.09,18.81 49.09,18.81 C49.09,18.81 58.32,24.04 58.32,24.04 C59.18,24.52 59.87,25.18 60.38,25.95 C61.57,27.7 61.79,30.02 60.8,32.05z "/></g></g><g id="_R_G_L_7_G_N_9_N_6_T_0" transform=" translate(123.982, 329.464) scale(2, 2) translate(-41.748, -70.364)"><g id="_R_G_L_7_G_N_9_T_0" transform=" translate(59.895, 32.097)"><g id="_R_G_L_7_G" transform=" translate(53.848, 28.35)"><path id="_R_G_L_7_G_D_0_P_0" fill="#bf6d28" fill-opacity="1" fill-rule="nonzero" d=" M16.92 0.39 C17.67,0.52 18.19,1.21 18.11,1.98 C19.43,9.65 20.41,20.16 19.07,32.46 C18.02,42.04 15.86,50.15 13.68,56.44 C13.64,56.83 13.36,59.25 11.18,60.89 C9.82,61.92 8.04,62.4 6.22,62.07 C6.22,62.07 6.22,62.07 6.22,62.07 C2.56,61.41 0.25,57.77 1.2,54.18 C1.2,54.18 15.23,1.45 15.23,1.45 C15.43,0.71 16.16,0.25 16.92,0.39z "/><path id="_R_G_L_7_G_D_1_P_0" fill="#3ec5f0" fill-opacity="1" fill-rule="nonzero" d=" M5.14 63.06 C6.07,63.42 7.04,63.67 7.99,63.82 C12.19,64.49 14.71,62.84 16.33,59 C18.85,53.06 20.77,46.75 22.23,40.46 C22.95,37.35 23.53,34.2 23.91,31.03 C24.01,30.12 25.05,21.67 24.39,21.47 C22.34,20.85 20.29,20.24 18.24,19.62 C16.43,19.07 13.98,17.8 12.1,17.77 C10.68,17.74 11.03,17.46 10.52,18.99 C10.18,20.01 9.96,21.1 9.68,22.14 C9.12,24.24 8.56,26.34 8,28.45 C5.73,36.99 3.46,45.52 1.19,54.06 C0.78,55.62 0.36,57.26 0.76,58.83 C1.29,60.91 3.08,62.26 5.14,63.06z "/></g></g></g><g id="_R_G_L_6_G_N_8_N_9_N_6_T_0" transform=" translate(123.982, 329.464) scale(2, 2) translate(-41.748, -70.364)"><g id="_R_G_L_6_G_N_8_N_9_T_0" transform=" translate(59.895, 32.097)"><g id="_R_G_L_6_G_N_8_T_0" transform=" translate(53.848, 28.35)"><g id="_R_G_L_6_G" transform=" translate(15.623, 1.583)"><path id="_R_G_L_6_G_D_0_P_0" fill="#bf6d28" fill-opacity="1" fill-rule="nonzero" d=" M2.38 0.25 C1.63,0.3 1.14,1.06 1.39,1.77 C1.98,3.43 2.59,6.01 2.23,9.12 C2,10.99 1.48,12.59 0.9,13.88 C0.23,15.36 1.38,17.01 2.99,16.9 C3.75,16.84 4.42,16.4 4.76,15.72 C5.45,14.31 6.27,12.1 6.27,9.35 C6.27,5.14 4.4,2.08 3.39,0.71 C3.17,0.42 2.83,0.24 2.46,0.24 C2.44,0.24 2.41,0.25 2.38,0.25z "/></g></g></g></g><g id="_R_G_L_5_G" transform=" translate(123.982, 329.464) scale(2, 2) translate(-41.748, -70.364)"><path id="_R_G_L_5_G_D_0_P_0" fill="#0a014f" fill-opacity="1" fill-rule="nonzero" d=" M74.76 26.13 C74.76,26.13 68.88,24.64 68.88,24.64 C68.88,24.64 66.02,23.92 66.02,23.92 C66.02,23.92 57.88,21.85 57.88,21.85 C52.94,20.6 48.74,17.74 45.77,13.93 C42.81,10.12 41.08,5.35 41.08,0.25 C41.08,0.25 34.43,0.25 34.43,0.25 C34.43,10.45 27.51,19.34 17.63,21.85 C17.63,21.85 9.51,23.91 9.51,23.91 C9.51,23.91 6.62,24.64 6.62,24.64 C6.62,24.64 0.7,26.15 0.7,26.15 C0.7,26.15 0.98,27.73 0.98,27.73 C2.37,31.32 4.01,34.79 5.89,38.1 C17.21,58.03 37.05,72.48 60.46,76.5 C60.46,76.5 63.65,65.61 63.65,65.61 C63.65,65.61 74.8,26.15 74.8,26.15 C74.79,26.14 74.77,26.14 74.76,26.13z "/><path id="_R_G_L_5_G_D_1_P_0" fill="#bf6d28" fill-opacity="1" fill-rule="nonzero" d=" M66.03 23.92 C59.26,31.98 49.12,37.11 37.77,37.11 C26.42,37.11 16.27,31.98 9.51,23.91 C9.51,23.91 17.63,21.85 17.63,21.85 C27.51,19.34 34.43,10.45 34.43,0.25 C34.43,0.25 41.08,0.25 41.08,0.25 C41.08,5.35 42.81,10.12 45.77,13.93 C48.74,17.74 52.94,20.6 57.88,21.85 C57.88,21.85 66.03,23.92 66.03,23.92z "/><path id="_R_G_L_5_G_D_2_P_0" fill="#bf6d28" fill-opacity="1" fill-rule="nonzero" d=" M66.03 23.92 C59.26,31.98 49.12,37.11 37.77,37.11 C26.42,37.11 16.27,31.98 9.51,23.91 C9.51,23.91 17.63,21.85 17.63,21.85 C27.51,19.34 34.43,10.45 34.43,0.25 C34.43,0.25 41.08,0.25 41.08,0.25 C41.08,5.35 42.81,10.12 45.77,13.93 C48.74,17.74 52.94,20.6 57.88,21.85 C57.88,21.85 66.03,23.92 66.03,23.92z "/><path id="_R_G_L_5_G_D_3_P_0" fill="#3ec5f0" fill-opacity="1" fill-rule="nonzero" d=" M37.57 68.88 C44.61,72.56 52.27,75.21 60.37,76.6 C60.37,76.6 63.56,65.71 63.56,65.71 C62.25,66.79 57,70.84 49.42,70.4 C43.21,70.04 39.03,66.87 37.61,65.68 C37.6,65.68 37.59,65.67 37.59,65.67 C37.58,65.66 37.58,65.65 37.57,65.65 C37.57,65.65 37.57,68.88 37.57,68.88z  M37.59 65.51 C37.59,65.52 37.58,65.53 37.57,65.53 C37.15,65.88 36.27,66.58 35.01,67.33 C35.87,67.82 36.73,68.3 37.61,68.75 C37.61,68.75 37.61,65.5 37.61,65.5 C37.6,65.5 37.6,65.51 37.59,65.51z "/><path id="_R_G_L_5_G_D_4_P_0" fill="#3ec5f0" fill-opacity="1" fill-rule="nonzero" d=" M5.89 38.1 C10.35,45.96 16.14,52.95 22.94,58.8 C22.94,58.8 22.94,19.75 22.94,19.75 C15.38,21.75 7.82,23.76 0.25,25.76 C1.78,30.06 3.66,34.19 5.89,38.1z "/><path id="_R_G_L_5_G_D_5_P_0" fill="#3ec5f0" fill-opacity="1" fill-rule="nonzero" d=" M53.09 74.86 C58.18,76.26 63.49,77.15 68.94,77.48 C68.01,64.85 69.36,53.68 71.41,44.57 C73.16,36.87 75.4,30.64 77.2,26.28 C77.21,26.24 77.23,26.19 77.25,26.15 C77.08,26.1 76.9,26.06 76.73,26.01 C70.83,24.44 64.92,22.88 59.02,21.31 C57.04,20.79 55.07,20.27 53.09,19.74 C53.09,19.74 53.09,74.86 53.09,74.86z "/><path id="_R_G_L_5_G_D_6_P_0" stroke="#090e21" stroke-linecap="round" stroke-linejoin="round" fill="none" stroke-width="0.5" stroke-opacity="1" d=" M25.45 17.97 C25.61,24.55 31.08,29.84 37.62,29.8 C44.09,29.75 49.46,24.48 49.62,17.97 "/></g><g id="_R_G_L_4_G_N_6_T_0" transform=" translate(123.982, 329.464) scale(2, 2) translate(-41.748, -70.364)"><g id="_R_G_L_4_G" transform=" translate(37.888, 7.258)"><path id="_R_G_L_4_G_D_0_P_0" fill="#090e21" fill-opacity="1" fill-rule="nonzero" d=" M54.11 29.27 C54.11,38.48 46.64,45.95 37.43,45.95 C28.22,45.95 20.75,38.48 20.75,29.27 C20.75,20.06 28.22,12.6 37.43,12.6 C46.64,12.6 54.11,20.06 54.11,29.27z "/><path id="_R_G_L_4_G_D_1_P_0" fill="#bf6d28" fill-opacity="1" fill-rule="nonzero" d=" M43.69 47.35 C43.3,47.64 42.9,47.83 42.51,47.9 C42.18,47.96 41.81,47.95 41.42,47.87 C39.92,47.56 38.01,46.22 36.22,44.13 C35.1,42.83 34.03,41.24 33.14,39.42 C32.22,37.56 31.47,35.46 31.05,33.19 C30.64,31.01 30.47,28.88 30.52,26.9 C30.58,24.42 30.98,22.17 31.67,20.32 C31.68,20.24 31.72,20.17 31.74,20.11 C31.87,19.76 32.02,19.42 32.18,19.1 C32.18,19.1 32.19,19.1 32.19,19.1 C32.22,19.01 32.28,18.93 32.31,18.85 C32.35,18.76 32.4,18.68 32.44,18.6 C32.52,18.44 32.62,18.27 32.72,18.13 C32.79,18 32.88,17.89 32.96,17.79 C33.03,17.67 33.1,17.56 33.2,17.47 C33.28,17.36 33.36,17.26 33.43,17.16 C33.7,16.86 33.97,16.59 34.26,16.36 C34.37,16.26 34.47,16.19 34.59,16.11 C34.83,15.94 35.06,15.8 35.31,15.68 C35.43,15.63 35.55,15.59 35.66,15.54 C35.9,15.45 36.16,15.37 36.42,15.32 C39.31,14.78 42.38,17.12 44.7,21.12 C45.03,21.7 45.35,22.31 45.65,22.96 C46.32,24.38 46.89,25.96 47.34,27.65 C47.56,28.42 47.73,29.23 47.89,30.04 C49.35,37.93 46.55,45.27 43.69,47.35z "/><path id="_R_G_L_4_G_D_2_P_0" fill="#bf6d28" fill-opacity="1" fill-rule="nonzero" d=" M36.27 15.49 C36.01,15.54 35.75,15.61 35.51,15.71 C35.4,15.75 35.28,15.8 35.17,15.85 C34.92,15.97 34.68,16.11 34.45,16.27 C34.32,16.35 34.21,16.43 34.11,16.52 C33.82,16.75 33.55,17.02 33.29,17.32 C33.21,17.43 33.13,17.53 33.05,17.63 C32.96,17.73 32.89,17.84 32.81,17.95 C32.73,18.06 32.65,18.17 32.58,18.29 C32.47,18.44 32.37,18.6 32.3,18.76 C32.19,18.92 32.11,19.09 32.03,19.26 C31.87,19.59 31.72,19.93 31.59,20.28 C31.56,20.34 31.53,20.41 31.51,20.48 C31.51,20.48 31.52,20.48 31.52,20.48 C34.2,20.33 37.01,22.57 39.16,26.24 C40.6,28.7 41.76,31.8 42.4,35.26 C42.53,35.97 40.09,35.33 40.16,36.03 C40.24,36.85 40.38,37.71 40.54,38.6 C41.18,42.05 42.18,45.77 41.28,48.03 C41.67,48.11 42.03,48.12 42.36,48.06 C42.75,47.99 43.16,47.8 43.55,47.51 C46.4,45.43 49.21,38.1 47.74,30.21 C47.59,29.39 47.41,28.59 47.2,27.82 C46.54,25.36 45.63,23.14 44.55,21.28 C42.45,17.67 39.73,15.41 37.1,15.41 C36.82,15.41 36.55,15.44 36.27,15.49z "/><path id="_R_G_L_4_G_D_3_P_0" fill="#bf6d28" fill-opacity="1" fill-rule="nonzero" d=" M45.71 22.98 C45.97,23.55 43.07,24.08 42.77,24.14 C41.09,24.48 39.76,24.35 38.05,24.35 C35.23,24.35 32.64,25.31 30.58,26.92 C30.64,24.44 31.04,22.19 31.73,20.34 C31.74,20.26 31.78,20.19 31.8,20.13 C31.93,19.78 32.08,19.44 32.25,19.12 C32.28,19.03 32.34,18.95 32.37,18.87 C32.41,18.78 32.46,18.7 32.5,18.62 C32.58,18.46 32.68,18.29 32.78,18.15 C32.85,18.02 32.94,17.91 33.02,17.81 C33.09,17.69 33.16,17.58 33.26,17.49 C33.34,17.38 33.42,17.28 33.49,17.18 C33.76,16.88 34.03,16.61 34.32,16.38 C34.43,16.28 34.53,16.21 34.65,16.13 C34.89,15.96 35.12,15.82 35.37,15.7 C35.49,15.65 35.61,15.61 35.72,15.56 C35.96,15.47 36.22,15.39 36.48,15.34 C39.37,14.8 42.44,17.14 44.76,21.14 C45.09,21.72 45.41,22.33 45.71,22.98z "/><path id="_R_G_L_4_G_D_4_P_0" stroke="#0f1322" stroke-linecap="round" stroke-linejoin="round" fill="none" stroke-width="0.75" stroke-opacity="1" d=" M36.93 29.35 C36.93,29.35 34.2,29.74 34.2,29.74  M37.61 29.25 C37.61,29.25 37.43,29.27 37.43,29.27 C36.3,29.44 35.14,29.31 34.08,28.89 "/><path id="_R_G_L_4_G_D_5_P_0" fill="#73f0ec" fill-opacity="0.3" fill-rule="nonzero" d=" M35.28 26.6 C33.2,26.99 31.83,29 32.22,31.08 C32.61,33.16 34.62,34.53 36.7,34.13 C38.78,33.74 40.14,31.74 39.75,29.66 C39.41,27.82 37.8,26.53 35.99,26.53 C35.76,26.53 35.52,26.55 35.28,26.6z  M45.46 24.66 C43.38,25.06 42.01,27.06 42.41,29.14 C42.8,31.22 44.8,32.59 46.89,32.2 C48.97,31.8 50.33,29.8 49.94,27.72 C49.59,25.88 47.99,24.6 46.18,24.6 C45.94,24.6 45.7,24.62 45.46,24.66z "/><path id="_R_G_L_4_G_D_6_P_0" stroke="#ffffff" stroke-linecap="round" stroke-linejoin="round" fill="none" stroke-width="0.5" stroke-opacity="1" d=" M49.92 27.68 C50.31,29.76 48.94,31.76 46.86,32.15 C44.78,32.55 42.78,31.18 42.39,29.1 C42,27.02 43.36,25.01 45.44,24.62 C47.52,24.23 49.53,25.6 49.92,27.68z  M39.77 29.59 C39.77,29.59 42.39,29.1 42.39,29.1  M39.77 29.59 C40.16,31.67 38.79,33.68 36.71,34.07 C34.63,34.46 32.63,33.09 32.23,31.01 C31.84,28.93 33.21,26.93 35.29,26.54 C37.37,26.14 39.37,27.51 39.77,29.59z  M32.23 31.01 C32.23,31.01 29.16,31.51 29.16,31.51 "/></g></g><g id="_R_G_L_3_G_N_5_N_6_T_0" transform=" translate(123.982, 329.464) scale(2, 2) translate(-41.748, -70.364)"><g id="_R_G_L_3_G_N_5_T_0" transform=" translate(37.888, 7.258)"><g id="_R_G_L_3_G" transform=" translate(24.821, 19.007)"><path id="_R_G_L_3_G_D_0_P_0" fill="#000000" fill-opacity="1" fill-rule="nonzero" d=" M34.56 1.18 C31.49,2.56 28.02,2.98 24.85,1.84 C22.43,0.97 19.76,0.61 16.99,0.87 C8.19,1.71 1.18,9.02 0.69,17.86 C0.25,25.76 4.9,32.64 11.65,35.52 C11.65,35.52 11.65,35.61 11.65,35.61 C11.65,43.32 18.07,49.52 25.85,49.2 C29.23,49.06 32.31,47.65 34.62,45.42 C29,44.37 24.75,39.43 24.75,33.49 C24.75,26.78 30.19,21.34 36.9,21.34 C37.72,21.34 38.52,21.42 39.29,21.58 C39.57,21.57 39.87,21.55 40.16,21.51 C45.06,20.96 49.01,16.99 49.53,12.09 C50.21,5.67 45.19,0.25 38.92,0.25 C37.37,0.25 35.89,0.58 34.56,1.18z "/><path id="_R_G_L_3_G_D_1_P_0" fill="#000000" fill-opacity="1" fill-rule="nonzero" d=" M47.58 4.69 C47.1,4.82 46.63,4.99 46.17,5.2 C43.1,6.59 39.64,7 36.46,5.86 C34.04,4.99 31.38,4.63 28.61,4.89 C19.8,5.73 12.79,13.04 12.3,21.88 C11.87,29.78 16.51,36.66 23.26,39.54 C23.26,39.54 23.26,39.63 23.26,39.63 C23.26,43.31 24.72,46.64 27.1,49.09 C26.69,49.15 26.27,49.18 25.85,49.2 C18.07,49.52 11.65,43.32 11.65,35.6 C11.65,35.6 11.65,35.52 11.65,35.52 C4.9,32.64 0.25,25.76 0.69,17.86 C1.18,9.02 8.18,1.71 16.99,0.87 C19.76,0.61 22.43,0.97 24.85,1.84 C28.02,2.98 31.49,2.56 34.56,1.18 C35.89,0.58 37.36,0.25 38.92,0.25 C42.48,0.25 45.65,2 47.58,4.69z "/></g></g></g><g id="_R_G_L_2_G_N_6_T_0" transform=" translate(123.982, 329.464) scale(2, 2) translate(-41.748, -70.364)"><g id="_R_G_L_2_G" transform=" translate(6.427, 27.837)"><path id="_R_G_L_2_G_D_0_P_0" fill="#000000" fill-opacity="0.18" fill-rule="nonzero" d=" M46.4 41.87 C46.29,45.07 45.98,48.25 45.52,51.42 C44.59,57.8 43.21,64.25 41.2,70.38 C39.9,74.34 37.53,76.19 33.29,75.88 C32.98,75.86 32.67,75.81 32.35,75.76 C29.66,75.73 26.55,74.43 23.91,69.77 C23.91,69.77 2.03,22.98 2.03,22.98 C12.82,17.71 25.77,23.2 29.5,34.61 C29.5,34.61 30.74,38.38 30.74,38.38 C30.98,36.99 31.23,35.6 31.48,34.21 C31.67,33.14 32.05,31 32.05,31 C32.05,31 32.1,31 32.1,31 C32.1,31 34.77,16 34.77,16 C34.77,16 33.85,13.83 33.85,13.83 C33.85,13.83 32.87,11.52 32.87,11.52 C32.87,11.52 30.29,5.66 30.29,5.66 C30.28,5.64 30.28,5.62 30.27,5.6 C30.12,5.26 30.01,4.91 29.92,4.56 C29.91,4.52 29.9,4.48 29.89,4.44 C29.81,4.08 29.76,3.71 29.74,3.34 C29.74,3.34 29.74,3.27 29.74,3.27 C29.73,2.89 29.74,2.51 29.8,2.13 C29.8,2.11 29.8,2.08 29.81,2.06 C29.86,1.71 29.95,1.36 30.06,1.01 C30.07,0.98 30.07,0.94 30.09,0.91 C30.09,0.91 30.63,-0.68 30.63,-0.68 C31.14,0.1 31.68,0.82 32.23,1.47 C32.23,1.47 32.04,2.26 32.04,2.26 C31.99,2.5 31.99,2.74 32.03,2.97 C32.08,3.25 32.19,3.52 32.38,3.74 C32.38,3.74 37.46,9.98 37.46,9.98 C37.46,9.98 37.46,10.01 37.46,10.01 C37.64,10.25 37.79,10.5 37.93,10.76 C38.2,11.27 38.39,11.81 38.49,12.38 C38.5,12.41 38.5,12.44 38.51,12.47 C38.55,12.74 38.58,13.02 38.58,13.3 C38.58,13.3 38.58,13.33 38.58,13.33 C38.58,13.35 38.58,13.38 38.57,13.4 C38.57,13.61 38.56,13.81 38.53,14.02 C38.53,14.07 38.52,14.13 38.51,14.18 C38.5,14.27 38.48,14.37 38.46,14.47 C39.66,19.27 40.77,25.14 41.34,31.86 C41.34,31.86 46.08,32.31 46.08,32.31 C46.08,32.31 46.43,40.96 46.4,41.87z "/><path id="_R_G_L_2_G_D_1_P_0" fill="#3ec5f0" fill-opacity="1" fill-rule="nonzero" d=" M34.84 75.58 C34.84,75.58 34.84,75.58 34.84,75.58 C31.9,76.74 26.39,77.98 22.12,70.45 C22.12,70.45 0.25,23.66 0.25,23.66 C11.04,18.39 23.99,23.88 27.72,35.29 C27.72,35.29 38.41,67.99 38.41,67.99 C39.42,71.07 37.85,74.39 34.84,75.58z "/><path id="_R_G_L_2_G_D_2_P_0" fill="#3ec5f0" fill-opacity="1" fill-rule="nonzero" d=" M35.08 12.6 C35.84,12.68 36.42,13.32 36.41,14.09 C37.95,20 39.41,27.66 39.83,36.66 C39.95,39.14 29.54,36.06 29.54,36.06 C29.54,36.06 33.49,13.81 33.49,13.81 C33.63,13.06 34.32,12.53 35.08,12.6z "/><path id="_R_G_L_2_G_D_3_P_0" fill="#3ec5f0" fill-opacity="1" fill-rule="nonzero" d=" M39.97 44.34 C39.73,53.98 38.26,62.24 36.61,68.69 C36.61,69.08 36.55,71.53 34.5,73.34 C33.22,74.47 31.49,75.1 29.65,74.93 C29.34,74.9 29.04,74.85 28.75,74.77 C29.78,74.53 30.72,74.03 31.5,73.34 C33.53,71.51 33.61,69.08 33.61,68.69 C35.26,62.24 36.73,53.98 36.97,44.34 C37.27,32.02 35.43,21.67 33.48,14.13 C33.48,14.13 33.55,13.77 33.55,13.77 C33.68,13.02 34.37,12.49 35.13,12.56 C35.89,12.63 36.47,13.27 36.46,14.04 C38.42,21.58 40.28,31.97 39.97,44.34z "/><path id="_R_G_L_2_G_D_4_P_0" fill="#3ec5f0" fill-opacity="1" fill-rule="nonzero" d=" M28.61 76.05 C29.56,76.33 30.55,76.49 31.51,76.56 C35.74,76.87 38.12,75.02 39.42,71.07 C41.43,64.93 42.81,58.49 43.74,52.1 C44.2,48.93 44.51,45.75 44.62,42.55 C44.65,41.64 44.3,32.99 44.3,32.99 C44.3,32.99 30.27,31.68 30.27,31.68 C30.27,31.68 29.88,33.82 29.7,34.89 C29.31,37.03 28.93,39.17 28.55,41.31 C27.01,50.01 25.46,58.71 23.91,67.41 C23.63,69 23.35,70.67 23.88,72.19 C24.58,74.22 26.48,75.43 28.61,76.05z "/></g></g><g id="_R_G_L_1_G_N_3_N_6_T_0" transform=" translate(123.982, 329.464) scale(2, 2) translate(-41.748, -70.364)"><g id="_R_G_L_1_G_N_3_T_0" transform=" translate(6.427, 27.837)"><g id="_R_G_L_1_G" transform=" translate(34.826, 15.198)"><path id="_R_G_L_1_G_D_0_P_0" fill="#bf6d28" fill-opacity="1" fill-rule="nonzero" d=" M8.15 12.97 C8.15,12.97 8.16,12.94 8.16,12.94 C8.16,12.94 3.08,6.7 3.08,6.7 C2.74,6.28 2.61,5.73 2.74,5.21 C2.74,5.21 3.35,2.71 3.35,2.71 C3.35,2.71 2.95,0.88 2.95,0.88 C2.83,0.3 2.02,0.25 1.82,0.81 C1.82,0.81 0.78,3.86 0.78,3.86 C0.25,5.41 0.32,7.11 0.98,8.61 C0.98,8.61 3.56,14.47 3.56,14.47 C3.56,14.47 6.3,20.92 6.3,20.92 C6.3,20.92 9.05,17.86 9.05,17.86 C9.57,16.11 9.17,14.31 8.15,12.97z "/></g></g></g><g id="_R_G_L_0_G_N_11_T_0" transform=" translate(188, 188) translate(0, 0)"><g id="_R_G_L_0_G" transform=" translate(23.545, 149.814) scale(2, 2) translate(-36.093, -150.878)"><path id="_R_G_L_0_G_D_0_P_0" stroke="#0a014f" stroke-linecap="round" stroke-linejoin="round" fill="none" stroke-width="3" stroke-opacity="1" d=" M45.55 60.54 C45.55,60.54 4.82,151.26 4.82,151.26  M44.3 60.54 C44.3,60.54 76.81,133.16 76.81,133.16 "/><path id="_R_G_L_0_G_D_1_P_0" fill="#0a014f" fill-opacity="1" fill-rule="nonzero" d=" M50.77 59.92 C50.77,63.15 48.16,65.76 44.93,65.76 C41.7,65.76 39.08,63.15 39.08,59.92 C39.08,56.69 41.7,54.07 44.93,54.07 C48.16,54.07 50.77,56.69 50.77,59.92z "/><path id="_R_G_L_0_G_D_2_P_0" fill="#3ec5f0" fill-opacity="1" fill-rule="nonzero" d=" M48.18 59.92 C48.18,61.72 46.72,63.17 44.93,63.17 C43.13,63.17 41.67,61.72 41.67,59.92 C41.67,58.12 43.13,56.67 44.93,56.67 C46.72,56.67 48.18,58.12 48.18,59.92z "/><g id="_R_G_L_0_G_D_3_P_0_G_0_T_0" transform=" translate(44.907, 60.953)"><g id="_R_G_L_0_G_D_3_P_0_G_1_T_0" transform=" translate(15.46, 58.546) translate(0, 0)"><path id="_R_G_L_0_G_D_3_P_0" fill="#3ec5f0" fill-opacity="1" fill-rule="nonzero" d=" M13.9 3.35 C13.9,3.35 -6.69,12.63 -6.69,12.63 C-7.1,12.82 -7.58,12.64 -7.77,12.23 C-7.77,12.23 -14.31,-2.27 -14.31,-2.27 C-14.49,-2.68 -14.31,-3.17 -13.9,-3.35 C-13.9,-3.35 6.69,-12.63 6.69,-12.63 C7.1,-12.82 7.59,-12.63 7.77,-12.22 C7.77,-12.22 14.31,2.28 14.31,2.28 C14.49,2.69 14.31,3.17 13.9,3.35z "/></g></g><g id="_R_G_L_0_G_D_4_P_0_G_0_T_0" transform=" translate(44.907, 60.953)"><g id="_R_G_L_0_G_D_4_P_0_G_1_T_0" transform=" translate(32.882, 106.876) translate(0, 0)"><path id="_R_G_L_0_G_D_4_P_0" fill="#0a014f" fill-opacity="1" fill-rule="nonzero" d=" M-4.53 -63.45 C-4.53,-63.45 -1.08,-55.8 -1.08,-55.8 C-1.08,-55.8 -23.17,-45.84 -23.17,-45.84 C-23.17,-45.84 -26.61,-53.49 -26.61,-53.49 C-26.79,-53.88 -26.6,-54.38 -26.21,-54.55 C-26.21,-54.55 -5.61,-63.84 -5.61,-63.84 C-5.2,-64.02 -4.71,-63.83 -4.53,-63.45z "/></g></g><g id="_R_G_L_0_G_D_5_P_0_G_0_T_0" transform=" translate(44.907, 60.953)"><g id="_R_G_L_0_G_D_5_P_0_G_1_T_0" transform=" translate(39.418, 47.748) translate(0, 0)"><path id="_R_G_L_0_G_D_5_P_0" fill="#0a014f" fill-opacity="1" fill-rule="nonzero" d=" M-9.12 18.38 C-9.12,18.38 19.81,5.34 19.81,5.34 C20.22,5.16 20.4,4.67 20.21,4.26 C20.21,4.26 10.19,-17.97 10.19,-17.97 C10.01,-18.38 9.53,-18.56 9.12,-18.38 C9.12,-18.38 -19.81,-5.34 -19.81,-5.34 C-20.22,-5.16 -20.4,-4.67 -20.21,-4.26 C-20.21,-4.26 -10.19,17.97 -10.19,17.97 C-10.01,18.38 -9.53,18.56 -9.12,18.38z "/></g></g><g id="_R_G_L_0_G_D_6_P_0_G_0_T_0" transform=" translate(44.907, 60.953)"><g id="_R_G_L_0_G_D_6_P_0_G_1_T_0" transform=" translate(37.303, 42.898) translate(0, 0)"><g id="_R_G_L_0_G_D_6_P_0_G_2_T_0"><path id="_R_G_L_0_G_D_6_P_0" fill="#0a014f" fill-opacity="1" fill-rule="nonzero" d=" M12.3 -13.12 C12.3,-13.12 18.17,-0.1 18.17,-0.1 C18.17,-0.1 -12.23,13.6 -12.23,13.6 C-12.23,13.6 -18.09,0.58 -18.09,0.58 C-18.28,0.17 -18.1,-0.3 -17.69,-0.48 C-17.69,-0.48 11.24,-13.52 11.24,-13.52 C11.65,-13.71 12.12,-13.53 12.3,-13.12z "/></g></g></g><g id="_R_G_L_0_G_D_7_P_0_G_0_T_0" transform=" translate(44.907, 60.953)"><g id="_R_G_L_0_G_D_7_P_0_G_1_T_0" transform=" translate(75.342, 31.557) translate(0, 0)"><path id="_R_G_L_0_G_D_7_P_0" fill="#0a014f" fill-opacity="1" fill-rule="nonzero" d=" M29.87 6.84 C29.87,6.84 -14.66,26.9 -14.66,26.9 C-15.07,27.09 -15.55,26.91 -15.73,26.5 C-15.73,26.5 -30.27,-5.76 -30.27,-5.76 C-30.46,-6.17 -30.27,-6.65 -29.86,-6.84 C-29.86,-6.84 14.66,-26.9 14.66,-26.9 C15.07,-27.09 15.55,-26.91 15.73,-26.5 C15.73,-26.5 30.27,5.76 30.27,5.76 C30.46,6.17 30.28,6.65 29.87,6.84z "/></g></g><g id="_R_G_L_0_G_D_8_P_0_G_0_T_0" transform=" translate(44.907, 60.953)"><g id="_R_G_L_0_G_D_8_P_0_G_1_T_0" transform=" translate(142.427, 44.33) translate(0, 0)"><path id="_R_G_L_0_G_D_8_P_0" fill="#0a014f" fill-opacity="1" fill-rule="nonzero" d=" M-51.23 -39.16 C-51.23,-39.16 -44.99,-25.32 -44.99,-25.32 C-44.99,-25.32 -91.01,-4.58 -91.01,-4.58 C-91.01,-4.58 -97.25,-18.42 -97.25,-18.42 C-97.43,-18.83 -97.24,-19.33 -96.83,-19.51 C-96.83,-19.51 -52.32,-39.57 -52.32,-39.57 C-51.91,-39.76 -51.42,-39.57 -51.23,-39.16z "/></g></g></g></g></g><g id="time_group"/></svg>