<svg width="194" height="74" viewBox="0 0 194 74" fill="none" xmlns="http://www.w3.org/2000/svg">
<path fill-rule="evenodd" clip-rule="evenodd" d="M70.4062 54.8398H121.535V67.5721H70.4062V54.8398Z" fill="#666666"/>
<path fill-rule="evenodd" clip-rule="evenodd" d="M81.5127 58.2712C81.6213 58.4922 81.6776 58.7326 81.6703 59.0269L74.7166 59.0297C74.5043 59.0297 74.1717 59.1508 74.0496 59.4281C73.8979 59.7732 74.0726 60.1695 74.4174 60.3215C74.5548 60.382 74.7983 60.3737 74.7983 60.3737H79.857C80.7626 60.4377 81.5694 61.0191 81.8805 61.9765C82.1515 62.8101 82.0116 63.5035 81.4602 64.1844C80.8228 64.97 79.9509 64.9801 78.99 64.9787L73.3928 64.9724C72.7853 64.9717 72.2739 64.3737 72.1876 63.7596L72.1838 63.4482L79.5735 63.4552C79.8205 63.4559 80.1378 63.1146 80.1461 62.7649C80.1555 62.3878 79.8949 62.0291 79.5174 62.0291H74.1944C73.2734 62.0291 72.3351 61.1655 72.1838 60.0849C72.0613 59.211 72.3487 58.5499 73.0271 57.9853C73.5392 57.5591 73.9282 57.4383 74.6446 57.4369L79.5679 57.4307C80.3291 57.4164 81.1565 57.5476 81.5127 58.2712ZM93.0224 57.463C94.2123 57.4637 95.1774 58.6877 95.145 59.9677C95.1141 61.2031 94.0366 62.3439 93.0489 62.3439H88.8969C88.289 62.2698 87.8228 61.8294 87.5828 61.3193C87.501 61.1203 87.4965 60.8402 87.4732 60.6322L87.6878 60.6364H92.7069C92.9233 60.6364 93.1299 60.4381 93.2326 60.1893C93.3265 59.9618 93.3202 59.7767 93.2061 59.5589C93.0798 59.3171 92.8519 59.1647 92.6279 59.1647H87.0313L86.9788 59.2176V64.1733C86.9788 64.6339 86.5763 64.9738 86.1014 64.9648C85.6856 64.9575 85.297 64.6196 85.297 64.182V58.8756C85.297 58.4365 85.4636 58.1784 85.7757 57.8826C86.1021 57.5726 86.5321 57.4557 86.8476 57.4557L93.0224 57.463ZM102.034 59.4635C102.585 60.23 103.192 60.9693 103.718 61.7664H100.005L101.852 59.4542C101.852 59.4542 101.903 59.3759 101.95 59.3801C101.995 59.3842 102.034 59.4635 102.034 59.4635ZM103.551 58.6042C104.509 59.936 106.443 62.434 107.423 63.8427C107.546 64.1614 107.402 64.5031 107.24 64.7623C106.975 65.009 106.542 65.0611 106.241 64.9199C105.766 64.4965 105.438 63.9711 105.058 63.5011L98.6729 63.4875L97.9179 64.5107C97.6792 64.8336 97.3769 65.0549 96.9121 64.9728C96.6703 64.9237 96.44 64.7198 96.3596 64.5C96.2364 64.2147 96.2497 63.9447 96.4125 63.6851L100.459 58.3245C100.799 57.8162 101.166 57.4533 101.8 57.4568C102.797 57.47 102.864 57.7201 103.551 58.6042ZM117.908 57.463C118.786 57.4637 119.608 58.1289 119.938 59.0878C120.291 60.1159 119.965 61.0257 119.17 61.7664C118.992 61.931 118.67 62.1341 118.67 62.1341L119.768 63.7053C119.867 63.8487 119.9 64.1339 119.806 64.3813C119.72 64.6095 119.604 64.7442 119.379 64.8406C119.074 64.9724 118.669 64.85 118.539 64.6903C118.539 64.6903 117.489 63.412 116.909 62.6856C116.807 62.5781 116.754 62.4796 116.646 62.3704L113.849 62.3839C113.155 62.3874 112.337 61.5583 112.337 60.898V60.6426L117.545 60.6364C117.74 60.6357 117.959 60.4537 118.065 60.2157C118.161 60.0004 118.16 59.8271 118.065 59.6118C117.952 59.3536 117.695 59.1706 117.493 59.1706L111.828 59.187L111.811 59.2433V64.2923C111.811 64.628 111.347 65.0608 110.892 65.018C110.472 64.978 110.129 64.5504 110.129 64.2529L110.136 58.9024C110.136 58.3443 110.298 58.1276 110.65 57.8214C110.994 57.5225 111.304 57.4564 111.759 57.4564L117.908 57.463Z" fill="white"/>
<path fill-rule="evenodd" clip-rule="evenodd" d="M82.9747 34.3605C82.2987 35.2501 81.6053 36.1263 80.8948 36.9886L93.6069 36.9629C93.5321 38.6516 93.9298 40.7103 93.1432 42.1593C92.3527 43.7486 90.4973 44.5376 88.7821 44.5717C83.6559 44.0968 80.2467 39.6209 78.297 35.3858C78.1503 35.0495 78.0172 34.7074 77.8979 34.3605C76.1444 29.2757 77.0904 22.7537 80.4311 18.5909C85.3955 12.0463 94.1615 9.40252 102.329 11.9099C107.311 13.4609 111.741 17.3106 113.928 22.2096C115.506 25.9089 115.554 30.3682 114.272 34.3608C113.449 36.9194 112.08 39.2862 110.216 41.1385C107.914 43.0757 105.433 45.1173 102.237 44.4792C100.493 44.0735 99.2407 42.8673 98.803 41.2311C98.4287 39.806 98.5216 38.4384 98.7105 36.9629L111.682 36.9406L111.33 36.4991C110.728 35.7952 110.137 35.0823 109.557 34.3605C103.841 27.2418 99.2682 19.3487 96.1119 11.0749C92.7984 19.2575 88.3019 27.3535 82.9747 34.3605ZM72.8556 34.3605C74.8749 41.9342 81.01 48.1434 88.5963 50.3242C98.1496 53.3263 108.957 50.1265 115.134 42.8085C117.122 40.3975 118.555 37.4715 119.349 34.3605C120.683 29.1362 120.215 23.3897 117.546 18.6831C115.636 15.3623 112.83 12.2314 109.659 10.2392C102.533 5.5525 91.9582 5.18128 84.5135 9.12592C76.8837 13.0198 71.6195 21.1599 72.1726 30.0035C72.246 31.4759 72.475 32.9363 72.8556 34.3605Z" fill="#666666"/>
</svg>
