<svg width="56" height="56" xmlns="http://www.w3.org/2000/svg" fill="none">
 <defs>
  <linearGradient y2="0.50007" x2="0.99999" y1="0.50007" x1="0.00002" id="paint0_linear_1922_1423">
   <stop stop-color="#3EC5F0"/>
   <stop stop-color="#0880BD" offset="0.2063"/>
   <stop stop-color="#1F2F5E" offset="1"/>
  </linearGradient>
 </defs>
 <g>
  <title>Layer 1</title>
  <path id="svg_4" fill="#D6D8D6" d="m12.87568,17.54301l-7.11006,0l0,18.3683l7.11006,0l0,-18.3683z"/>
  <path id="svg_5" fill="#D6D8D6" d="m50.15688,17.54301l-7.11,0l0,18.3683l7.11,0l0,-18.3683z"/>
  <path id="svg_6" fill="#D6D8D6" d="m44.77768,40.71141l4.1793,-9.1372l-40.08475,-17.3706l-4.17935,9.1372l40.0848,17.3706z"/>
  <path id="svg_7" fill="#ADADAD" d="m28.06108,9.38848c2.6635,0 4.8227,-2.10168 4.8227,-4.69424c0,-2.59255 -2.1592,-4.69424 -4.8227,-4.69424c-2.6636,0 -4.8228,2.10169 -4.8228,4.69424c0,2.59256 2.1592,4.69424 4.8228,4.69424z"/>
  <path id="svg_8" fill="#ADADAD" d="m28.06108,56.17361c2.6635,0 4.8227,-2.1017 4.8227,-4.6942c0,-2.5926 -2.1592,-4.6942 -4.8227,-4.6942c-2.6636,0 -4.8228,2.1016 -4.8228,4.6942c0,2.5925 2.1592,4.6942 4.8228,4.6942z"/>
  <path id="svg_9" fill="#ADADAD" d="m25.72638,7.54674l-1.367,-2.30455l-14.83089,8.33472l1.36699,2.3045l14.8309,-8.33467z"/>
  <path id="svg_10" fill="#ADADAD" d="m45.05878,15.88661l1.367,-2.3046l-14.8309,-8.33466l-1.367,2.30455l14.8309,8.33471z"/>
  <path id="svg_11" fill="#ADADAD" d="m24.35958,50.89441l1.367,-2.3046l-14.8309,-8.3347l-1.36702,2.3046l14.83092,8.3347z"/>
  <path id="svg_12" fill="#ADADAD" d="m46.42168,42.55841l-1.367,-2.3045l-14.8309,8.3347l1.367,2.3045l14.8309,-8.3347z"/>
  <path id="svg_13" fill="url(#paint0_linear_1922_1423)" d="m48.78448,45.53371c-3.3544,0 -6.0822,-2.6551 -6.0822,-5.9201c0,-0.0785 0.0021,-0.155 0.0062,-0.2335l-31.9476,-17.9537c-0.2523,0.1651 -0.5191,0.3141 -0.7983,0.4429l0,12.426c2.0991,0.9703 3.4557,3.0074 3.4557,5.3183c0,3.263 -2.7277,5.9201 -6.08217,5.9201c-3.35441,0 -6.08221,-2.6551 -6.08221,-5.9201c0,-2.3129 1.35459,-4.348 3.45576,-5.3183l0,-12.426c-2.0991,-0.9702 -3.45576,-3.0054 -3.45576,-5.3183c0,-3.263 2.7278,-5.9201 6.08221,-5.9201c3.35447,0 6.08217,2.6551 6.08217,5.9201c0,0.149 -0.0062,0.3 -0.0206,0.455l31.776,17.857c0.3081,-0.2174 0.6369,-0.4086 0.9844,-0.5697l0,-12.426c-2.0991,-0.9682 -3.4558,-3.0054 -3.4558,-5.3183c0,-3.263 2.7278,-5.9201 6.0822,-5.9201c3.3544,0 6.0822,2.6551 6.0822,5.9201c0,2.3129 -1.3566,4.348 -3.4557,5.3183l0,12.426c2.0991,0.9683 3.4557,3.0054 3.4557,5.3183c0,3.267 -2.7278,5.9221 -6.0822,5.9221z"/>
  <path id="svg_14" fill="white" d="m48.78798,11.85991c2.6637,0 4.8228,2.1016 4.8228,4.6943c0,2.1277 -1.4622,3.9031 -3.4558,4.4788l0,14.1029c1.9936,0.5777 3.4558,2.3531 3.4558,4.4788c0,2.5927 -2.1591,4.6942 -4.8228,4.6942c-2.6637,0 -4.8227,-2.1015 -4.8227,-4.6922c0,-0.3059 0.0351,-0.6019 0.093,-0.8917l-33.4056,-18.7729c-0.5439,0.5012 -1.20778,0.8675 -1.94401,1.0809l0,14.1029c1.99361,0.5777 3.45571,2.3531 3.45571,4.4788c0,2.5927 -2.159,4.6942 -4.82271,4.6942c-2.66368,0 -4.82276,-2.1015 -4.82276,-4.6942c0,-2.1277 1.46214,-3.9031 3.45576,-4.4788l0,-14.1029c-1.99362,-0.5777 -3.45576,-2.3531 -3.45576,-4.4788c0,-2.5927 2.15908,-4.6943 4.82276,-4.6943c2.66371,0 4.82271,2.1016 4.82271,4.6943c0,0.3784 -0.0579,0.7407 -0.1447,1.093l33.3043,18.7166c0.5687,-0.5737 1.2905,-0.9924 2.0991,-1.2259l0,-14.1029c-1.9936,-0.5777 -3.4558,-2.3531 -3.4558,-4.4788c-0.002,-2.5947 2.157,-4.6963 4.8207,-4.6963zm0,-2.44975c-4.0472,0 -7.3396,3.20465 -7.3396,7.14405c0,2.5202 1.3318,4.7707 3.4558,6.0449l0,10.6989l-30.2291,-16.9874c-0.1324,-3.8267 -3.373,-6.90045 -7.33548,-6.90045c-4.04723,0 -7.3396,3.20465 -7.3396,7.14405c0,2.5202 1.33184,4.7707 3.45575,6.0449l0,10.9707c-2.12391,1.2742 -3.45575,3.5247 -3.45575,6.0449c0,3.9394 3.29237,7.144 7.3396,7.144c4.04718,0 7.33958,-3.2046 7.33958,-7.144c0,-2.5202 -1.3318,-4.7707 -3.4557,-6.0449l0,-10.4675l30.2394,16.9935c0.2544,3.7159 3.4413,6.6629 7.323,6.6629c4.0473,0 7.3396,-3.2046 7.3396,-7.144c0,-2.5202 -1.3318,-4.7707 -3.4557,-6.0449l0,-10.9707c2.1239,-1.2742 3.4557,-3.5247 3.4557,-6.0449c0.0021,-3.9394 -3.2903,-7.14405 -7.3375,-7.14405z"/>
 </g>
</svg>