<svg xmlns="http://www.w3.org/2000/svg" width="167" height="57" viewBox="0 0 167 57" fill="none">
<path d="M92.1977 15.3888C92.1977 13.6255 93.6102 12.1641 95.3122 12.1641C97.0163 12.1641 98.4267 13.6255 98.4267 15.3888V41.187C98.4267 42.9504 97.0142 44.4118 95.3122 44.4118C94.5325 44.4118 93.7053 44.1098 93.1221 43.4536L73.5064 23.1488V41.187C73.5064 42.9504 72.0939 44.4118 70.3919 44.4118C68.6898 44.4118 67.2773 42.9504 67.2773 41.187V15.3888C67.2773 13.6255 68.6898 12.1641 70.3919 12.1641C71.2191 12.1641 71.9988 12.5163 72.582 13.1222L92.1977 33.427V15.3888Z" fill="#373435"/>
<path d="M103.432 17.6554C102.847 17.0515 102.508 16.2443 102.508 15.3888C102.508 13.6758 103.968 12.1641 105.622 12.1641C106.45 12.1641 107.229 12.5163 107.812 13.1222L118.083 23.7527L128.353 13.1222C128.938 12.5163 129.715 12.1641 130.543 12.1641C132.197 12.1641 133.657 13.6758 133.657 15.3888C133.657 16.2464 133.316 17.0515 132.733 17.6554L122.463 28.2879L132.733 38.9204C133.318 39.5746 133.657 40.3818 133.657 41.187C133.657 42.9504 132.245 44.4118 130.543 44.4118C129.715 44.4118 128.985 44.1098 128.353 43.4536L118.083 32.8231L107.812 43.4536C107.18 44.1098 106.4 44.4118 105.622 44.4118C103.918 44.4118 102.508 42.9504 102.508 41.187C102.508 40.3295 102.799 39.5746 103.432 38.9204L113.702 28.2879L103.432 17.6554Z" fill="#373435"/>
<path d="M149.462 18.6136H140.603C138.899 18.6136 137.488 17.1522 137.488 15.3888C137.488 13.6255 138.901 12.1641 140.603 12.1641H163.482C165.186 12.1641 166.596 13.6255 166.596 15.3888C166.596 17.1522 165.184 18.6136 163.482 18.6136H155.694V41.187C155.694 42.9504 154.281 44.4118 152.579 44.4118C150.875 44.4118 149.465 42.9504 149.465 41.187V18.6136H149.462Z" fill="#373435"/>
<path d="M12.9499 17.7266H5.83984V36.0949H12.9499V17.7266Z" fill="#D6D8D6"/>
<path d="M50.2311 17.7266H43.1211V36.0949H50.2311V17.7266Z" fill="#D6D8D6"/>
<path d="M44.8519 40.895L49.0312 31.7578L8.94645 14.3872L4.7671 23.5244L44.8519 40.895Z" fill="#D6D8D6"/>
<path d="M28.1353 9.57207C30.7988 9.57207 32.958 7.47039 32.958 4.87783C32.958 2.28528 30.7988 0.183594 28.1353 0.183594C25.4717 0.183594 23.3125 2.28528 23.3125 4.87783C23.3125 7.47039 25.4717 9.57207 28.1353 9.57207Z" fill="#ADADAD"/>
<path d="M28.1353 56.3572C30.7988 56.3572 32.958 54.2555 32.958 51.663C32.958 49.0704 30.7988 46.9688 28.1353 46.9688C25.4717 46.9688 23.3125 49.0704 23.3125 51.663C23.3125 54.2555 25.4717 56.3572 28.1353 56.3572Z" fill="#ADADAD"/>
<path d="M25.8006 7.73033L24.4336 5.42578L9.60271 13.7605L10.9697 16.065L25.8006 7.73033Z" fill="#ADADAD"/>
<path d="M45.133 16.0702L46.5 13.7656L31.6691 5.43094L30.3021 7.73549L45.133 16.0702Z" fill="#ADADAD"/>
<path d="M24.4338 51.078L25.8008 48.7734L10.9699 40.4387L9.60288 42.7433L24.4338 51.078Z" fill="#ADADAD"/>
<path d="M46.4959 42.742L45.1289 40.4375L30.298 48.7722L31.665 51.0767L46.4959 42.742Z" fill="#ADADAD"/>
<path d="M48.8587 45.7173C45.5043 45.7173 42.7765 43.0622 42.7765 39.7972C42.7765 39.7187 42.7786 39.6422 42.7827 39.5637L10.8351 21.61C10.5828 21.7751 10.316 21.9241 10.0368 22.0529V34.4789C12.1359 35.4492 13.4925 37.4863 13.4925 39.7972C13.4925 43.0602 10.7648 45.7173 7.41033 45.7173C4.05592 45.7173 1.32812 43.0622 1.32812 39.7972C1.32812 37.4843 2.68271 35.4492 4.78388 34.4789V22.0529C2.68478 21.0827 1.32812 19.0475 1.32812 16.7346C1.32812 13.4716 4.05592 10.8145 7.41033 10.8145C10.7648 10.8145 13.4925 13.4696 13.4925 16.7346C13.4925 16.8836 13.4863 17.0346 13.4719 17.1896L45.2479 35.0466C45.556 34.8292 45.8848 34.638 46.2323 34.4769V22.0509C44.1332 21.0827 42.7765 19.0455 42.7765 16.7326C42.7765 13.4696 45.5043 10.8125 48.8587 10.8125C52.2131 10.8125 54.9409 13.4676 54.9409 16.7326C54.9409 19.0455 53.5843 21.0806 51.4852 22.0509V34.4769C53.5843 35.4452 54.9409 37.4823 54.9409 39.7952C54.9409 43.0622 52.2131 45.7173 48.8587 45.7173Z" fill="url(#paint0_linear_1922_1423)"/>
<path d="M48.8622 12.0435C51.5259 12.0435 53.685 14.1451 53.685 16.7378C53.685 18.8655 52.2228 20.6409 50.2292 21.2166V35.3195C52.2228 35.8972 53.685 37.6726 53.685 39.7983C53.685 42.391 51.5259 44.4925 48.8622 44.4925C46.1985 44.4925 44.0395 42.391 44.0395 39.8003C44.0395 39.4944 44.0746 39.1984 44.1325 38.9086L10.7269 20.1357C10.183 20.6369 9.51912 21.0032 8.78289 21.2166V35.3195C10.7765 35.8972 12.2386 37.6726 12.2386 39.7983C12.2386 42.391 10.0796 44.4925 7.41589 44.4925C4.75221 44.4925 2.59313 42.391 2.59313 39.7983C2.59313 37.6706 4.05527 35.8952 6.04889 35.3195V21.2166C4.05527 20.6389 2.59313 18.8635 2.59313 16.7378C2.59313 14.1451 4.75221 12.0435 7.41589 12.0435C10.0796 12.0435 12.2386 14.1451 12.2386 16.7378C12.2386 17.1162 12.1807 17.4785 12.0939 17.8308L45.3982 36.5474C45.9669 35.9737 46.6887 35.555 47.4973 35.3215V21.2186C45.5037 20.6409 44.0415 18.8655 44.0415 16.7398C44.0395 14.1451 46.1985 12.0435 48.8622 12.0435ZM48.8622 9.59375C44.815 9.59375 41.5226 12.7984 41.5226 16.7378C41.5226 19.258 42.8544 21.5085 44.9784 22.7827V33.4816L14.7493 16.4942C14.6169 12.6675 11.3763 9.59375 7.41382 9.59375C3.36659 9.59375 0.0742188 12.7984 0.0742188 16.7378C0.0742188 19.258 1.40606 21.5085 3.52997 22.7827V33.7534C1.40606 35.0276 0.0742188 37.2781 0.0742188 39.7983C0.0742188 43.7377 3.36659 46.9423 7.41382 46.9423C11.461 46.9423 14.7534 43.7377 14.7534 39.7983C14.7534 37.2781 13.4216 35.0276 11.2977 33.7534V23.2859L41.5371 40.2794C41.7915 43.9953 44.9784 46.9423 48.8601 46.9423C52.9074 46.9423 56.1997 43.7377 56.1997 39.7983C56.1997 37.2781 54.8679 35.0276 52.744 33.7534V22.7827C54.8679 21.5085 56.1997 19.258 56.1997 16.7378C56.2018 12.7984 52.9094 9.59375 48.8622 9.59375Z" fill="white"/>
<defs>
<linearGradient id="paint0_linear_1922_1423" x1="1.32945" y1="28.2674" x2="54.9406" y2="28.2674" gradientUnits="userSpaceOnUse">
<stop stop-color="#3EC5F0"/>
<stop offset="0.2063" stop-color="#0880BD"/>
<stop offset="1" stop-color="#1F2F5E"/>
</linearGradient>
</defs>
</svg>